<svg width="115" height="50" viewBox="0 0 115 50" fill="none" xmlns="http://www.w3.org/2000/svg">
<path d="M51.1449 33.1748H47.6361L47.3387 25.5648L42.9379 31.7479H42.4621L38.0613 25.5648L37.645 33.1748H34.1362L34.9688 18.2521H35.9798L42.6406 27.17L49.2418 18.2521H50.2528L51.1449 33.1748Z" fill="#FEFEFE"/>
<path d="M71.8794 33.1748H68.3706L68.0732 25.5648L63.6724 31.7479H63.1966L58.8553 25.5648L58.4389 33.1748H54.9302L55.7628 18.2521H56.7738L63.4345 27.17L70.0358 18.2521H71.0468L71.8794 33.1748Z" fill="#FEFEFE"/>
<path d="M88.6929 22.5922C88.6929 24.1974 88.1576 25.5053 87.0277 26.5161C85.8977 27.5268 84.292 28.0618 82.2106 28.0618C81.6753 28.0618 81.0806 28.0618 80.367 28.0024V33.1748H78.345V18.3115C78.6423 18.3115 79.4154 18.2521 80.6643 18.2521C81.9132 18.1926 82.7458 18.1926 83.1621 18.1926C86.8493 18.1926 88.7524 19.6195 88.6929 22.5922ZM86.6114 22.7111C86.6114 21.7004 86.3141 20.9869 85.7788 20.5707C85.2436 20.1546 84.292 19.9168 82.9242 19.9168C82.7458 19.9168 81.8537 19.9762 80.367 20.0357V26.1593C81.1401 26.2188 81.7943 26.2188 82.3295 26.2188C85.1841 26.2188 86.6114 25.0297 86.6114 22.7111Z" fill="#FEFEFE"/>
<path d="M97.4945 22.6516L97.435 24.4352C96.5429 24.3163 95.7104 24.3163 94.9967 24.3758C94.5209 24.4352 93.8668 24.5541 93.0936 24.8514V33.2343H91.1311V23.8407C92.0826 23.3651 92.9747 23.0083 93.6883 22.7705C94.402 22.5922 95.2346 22.4733 96.0672 22.4733C96.3051 22.4733 96.7808 22.5327 97.4945 22.6516Z" fill="#FEFEFE"/>
<path d="M100.349 31.8668C99.2785 30.8561 98.7433 29.5482 98.7433 27.9429C98.7433 26.3972 99.2785 25.0892 100.408 24.0785C101.479 23.0083 102.847 22.5327 104.452 22.5327C106.118 22.5327 107.545 23.0678 108.556 24.0785C109.626 25.0892 110.162 26.3972 110.162 28.0024C110.162 29.5482 109.626 30.8561 108.496 31.8668C107.367 32.937 106.058 33.4126 104.452 33.4126C102.728 33.4126 101.36 32.8775 100.349 31.8668ZM104.452 31.7479C105.523 31.7479 106.415 31.3912 107.129 30.6778C107.783 29.9643 108.14 29.0725 108.14 28.0024C108.14 26.9322 107.783 26.0404 107.129 25.327C106.474 24.6136 105.582 24.2569 104.452 24.2569C103.323 24.2569 102.43 24.6136 101.776 25.327C101.122 26.0404 100.765 26.9322 100.765 28.0024C100.765 29.0725 101.122 29.9643 101.776 30.6778C102.49 31.3912 103.382 31.7479 104.452 31.7479Z" fill="#FEFEFE"/>
<path d="M22.0042 17.3008V11.1177H21.6474V17.3008H19.0307L15.0461 21.2842V9.39358H12.4889V0H12.132V9.39358H9.51533V21.2842L5.53078 17.3008H2.91407V11.1177H2.55724V17.3008H0V33.2937H2.55724V41.9738H2.91407V33.2937H5.53078V23.9001L9.51533 27.8835V37.9905H12.132V50H12.4889V37.9905H15.0461V27.8835L19.0307 23.9001V33.2937H21.6474V41.9738H22.0042V33.2937H24.5614V17.3008H22.0042Z" fill="#33CC66"/>
</svg>
